<?xml version="1.0" encoding="UTF-8" standalone="no"?>
<!DOCTYPE svg PUBLIC "-//W3C//DTD SVG 1.1//EN"
 "http://www.w3.org/Graphics/SVG/1.1/DTD/svg11.dtd">
<!-- Generated by graphviz version 2.40.1 (20161225.0304)
 -->
<!-- Title: dependencies Pages: 1 -->
<svg width="949pt" height="284pt"
 viewBox="0.00 0.00 949.00 284.00" xmlns="http://www.w3.org/2000/svg" xmlns:xlink="http://www.w3.org/1999/xlink">
<g id="graph0" class="graph" transform="scale(1 1) rotate(0) translate(4 280)">
<title>dependencies</title>
<polygon fill="#ffffff" stroke="transparent" points="-4,4 -4,-280 945,-280 945,4 -4,4"/>
<text text-anchor="start" x="449.5091" y="-42.4" font-family="sans-serif" font-weight="bold" font-size="14.00" fill="#000000">Legend</text>
<polygon fill="#ffffb3" stroke="transparent" points="236.5,-10 236.5,-30 256.5,-30 256.5,-10 236.5,-10"/>
<text text-anchor="start" x="260.129" y="-15.4" font-family="sans-serif" font-size="14.00" fill="#000000"> &#160;Declarations</text>
<polygon fill="#8dd3c7" stroke="transparent" points="349.5,-10 349.5,-30 369.5,-30 369.5,-10 349.5,-10"/>
<text text-anchor="start" x="373.2251" y="-15.4" font-family="sans-serif" font-size="14.00" fill="#000000"> &#160;Module</text>
<polygon fill="#80b1d3" stroke="transparent" points="435.5,-10 435.5,-30 455.5,-30 455.5,-10 435.5,-10"/>
<text text-anchor="start" x="459.2812" y="-15.4" font-family="sans-serif" font-size="14.00" fill="#000000"> &#160;Bootstrap</text>
<polygon fill="#fdb462" stroke="transparent" points="532.5,-10 532.5,-30 552.5,-30 552.5,-10 532.5,-10"/>
<text text-anchor="start" x="556.1732" y="-15.4" font-family="sans-serif" font-size="14.00" fill="#000000"> &#160;Providers</text>
<polygon fill="#fb8072" stroke="transparent" points="628.5,-10 628.5,-30 648.5,-30 648.5,-10 628.5,-10"/>
<text text-anchor="start" x="652.2258" y="-15.4" font-family="sans-serif" font-size="14.00" fill="#000000"> &#160;Exports</text>
<g id="clust1" class="cluster">
<title>cluster_SharedModule</title>
<polygon fill="none" stroke="#000000" stroke-dasharray="1,5" points="8,-70 8,-268 933,-268 933,-70 8,-70"/>
</g>
<g id="clust2" class="cluster">
<title>cluster_SharedModule_declarations</title>
<polygon fill="none" stroke="#000000" points="284,-78 284,-130 925,-130 925,-78 284,-78"/>
</g>
<g id="clust8" class="cluster">
<title>cluster_SharedModule_imports</title>
<polygon fill="none" stroke="#000000" points="34,-78 34,-130 276,-130 276,-78 34,-78"/>
</g>
<g id="clust9" class="cluster">
<title>cluster_SharedModule_exports</title>
<polygon fill="none" stroke="#000000" points="16,-208 16,-260 925,-260 925,-208 16,-208"/>
</g>
<!-- BtnComponent -->
<g id="node1" class="node">
<title>BtnComponent</title>
<polygon fill="#ffffb3" stroke="#000000" points="916.5606,-122 815.4394,-122 815.4394,-86 916.5606,-86 916.5606,-122"/>
<text text-anchor="middle" x="866" y="-99.8" font-family="Times,serif" font-size="14.00" fill="#000000">BtnComponent</text>
</g>
<!-- SharedModule -->
<g id="node6" class="node">
<title>SharedModule</title>
<polygon fill="#8dd3c7" stroke="#000000" points="521.4231,-187 518.4231,-191 497.4231,-191 494.4231,-187 422.5769,-187 422.5769,-151 521.4231,-151 521.4231,-187"/>
<text text-anchor="middle" x="472" y="-164.8" font-family="Times,serif" font-size="14.00" fill="#000000">SharedModule</text>
</g>
<!-- BtnComponent&#45;&gt;SharedModule -->
<g id="edge1" class="edge">
<title>BtnComponent&#45;&gt;SharedModule</title>
<path fill="none" stroke="#000000" d="M848.9901,-122.2222C848.9901,-140.8285 848.9901,-167 848.9901,-167 848.9901,-167 531.2849,-167 531.2849,-167"/>
<polygon fill="#000000" stroke="#000000" points="531.2849,-163.5001 521.2849,-167 531.2848,-170.5001 531.2849,-163.5001"/>
</g>
<!-- StateDirective -->
<g id="node2" class="node">
<title>StateDirective</title>
<polygon fill="#ffffb3" stroke="#000000" points="797.0758,-122 700.9242,-122 700.9242,-86 797.0758,-86 797.0758,-122"/>
<text text-anchor="middle" x="749" y="-99.8" font-family="Times,serif" font-size="14.00" fill="#000000">StateDirective</text>
</g>
<!-- StateDirective&#45;&gt;SharedModule -->
<g id="edge2" class="edge">
<title>StateDirective&#45;&gt;SharedModule</title>
<path fill="none" stroke="#000000" d="M731.8697,-122.0336C731.8697,-139.0597 731.8697,-162 731.8697,-162 731.8697,-162 531.4912,-162 531.4912,-162"/>
<polygon fill="#000000" stroke="#000000" points="531.4912,-158.5001 521.4912,-162 531.4911,-165.5001 531.4912,-158.5001"/>
</g>
<!-- TableDarkComponent -->
<g id="node3" class="node">
<title>TableDarkComponent</title>
<polygon fill="#ffffb3" stroke="#000000" points="682.6867,-122 541.3133,-122 541.3133,-86 682.6867,-86 682.6867,-122"/>
<text text-anchor="middle" x="612" y="-99.8" font-family="Times,serif" font-size="14.00" fill="#000000">TableDarkComponent</text>
</g>
<!-- TableDarkComponent&#45;&gt;SharedModule -->
<g id="edge3" class="edge">
<title>TableDarkComponent&#45;&gt;SharedModule</title>
<path fill="none" stroke="#000000" d="M553.375,-122.2396C553.375,-137.5706 553.375,-157 553.375,-157 553.375,-157 531.2134,-157 531.2134,-157"/>
<polygon fill="#000000" stroke="#000000" points="531.2135,-153.5001 521.2134,-157 531.2134,-160.5001 531.2135,-153.5001"/>
</g>
<!-- TableLightComponent -->
<g id="node4" class="node">
<title>TableLightComponent</title>
<polygon fill="#ffffb3" stroke="#000000" points="523.5393,-122 380.4607,-122 380.4607,-86 523.5393,-86 523.5393,-122"/>
<text text-anchor="middle" x="452" y="-99.8" font-family="Times,serif" font-size="14.00" fill="#000000">TableLightComponent</text>
</g>
<!-- TableLightComponent&#45;&gt;SharedModule -->
<g id="edge4" class="edge">
<title>TableLightComponent&#45;&gt;SharedModule</title>
<path fill="none" stroke="#000000" d="M472,-122.1061C472,-122.1061 472,-140.991 472,-140.991"/>
<polygon fill="#000000" stroke="#000000" points="468.5001,-140.9909 472,-150.991 475.5001,-140.991 468.5001,-140.9909"/>
</g>
<!-- TotalPipe -->
<g id="node5" class="node">
<title>TotalPipe</title>
<polygon fill="#ffffb3" stroke="#000000" points="362.4376,-122 291.5624,-122 291.5624,-86 362.4376,-86 362.4376,-122"/>
<text text-anchor="middle" x="327" y="-99.8" font-family="Times,serif" font-size="14.00" fill="#000000">TotalPipe</text>
</g>
<!-- TotalPipe&#45;&gt;SharedModule -->
<g id="edge5" class="edge">
<title>TotalPipe&#45;&gt;SharedModule</title>
<path fill="none" stroke="#000000" d="M327,-122.2396C327,-137.5706 327,-157 327,-157 327,-157 412.5048,-157 412.5048,-157"/>
<polygon fill="#000000" stroke="#000000" points="412.5048,-160.5001 422.5048,-157 412.5047,-153.5001 412.5048,-160.5001"/>
</g>
<!-- BtnComponent  -->
<g id="node9" class="node">
<title>BtnComponent </title>
<polygon fill="#fb8072" stroke="#000000" points="916.5596,-252 811.4404,-252 811.4404,-216 916.5596,-216 916.5596,-252"/>
<text text-anchor="middle" x="864" y="-229.8" font-family="Times,serif" font-size="14.00" fill="#000000">BtnComponent </text>
</g>
<!-- SharedModule&#45;&gt;BtnComponent  -->
<g id="edge8" class="edge">
<title>SharedModule&#45;&gt;BtnComponent </title>
<path fill="none" stroke="#000000" stroke-dasharray="5,2" d="M521.5472,-172C630.7969,-172 882.7599,-172 882.7599,-172 882.7599,-172 882.7599,-205.7333 882.7599,-205.7333"/>
<polygon fill="#000000" stroke="#000000" points="879.26,-205.7333 882.7599,-215.7333 886.26,-205.7333 879.26,-205.7333"/>
</g>
<!-- IconsModule  -->
<g id="node10" class="node">
<title>IconsModule </title>
<polygon fill="#fb8072" stroke="#000000" points="793.8703,-252 700.1297,-252 700.1297,-216 793.8703,-216 793.8703,-252"/>
<text text-anchor="middle" x="747" y="-229.8" font-family="Times,serif" font-size="14.00" fill="#000000">IconsModule </text>
</g>
<!-- SharedModule&#45;&gt;IconsModule  -->
<g id="edge9" class="edge">
<title>SharedModule&#45;&gt;IconsModule </title>
<path fill="none" stroke="#000000" stroke-dasharray="5,2" d="M521.3264,-177C604.2864,-177 762.7772,-177 762.7772,-177 762.7772,-177 762.7772,-205.9648 762.7772,-205.9648"/>
<polygon fill="#000000" stroke="#000000" points="759.2773,-205.9648 762.7772,-215.9648 766.2773,-205.9649 759.2773,-205.9648"/>
</g>
<!-- StateDirective  -->
<g id="node11" class="node">
<title>StateDirective </title>
<polygon fill="#fb8072" stroke="#000000" points="682.5767,-252 583.4233,-252 583.4233,-216 682.5767,-216 682.5767,-252"/>
<text text-anchor="middle" x="633" y="-229.8" font-family="Times,serif" font-size="14.00" fill="#000000">StateDirective </text>
</g>
<!-- SharedModule&#45;&gt;StateDirective  -->
<g id="edge10" class="edge">
<title>SharedModule&#45;&gt;StateDirective </title>
<path fill="none" stroke="#000000" stroke-dasharray="5,2" d="M521.589,-182C568.8661,-182 632.9027,-182 632.9027,-182 632.9027,-182 632.9027,-205.8129 632.9027,-205.8129"/>
<polygon fill="#000000" stroke="#000000" points="629.4028,-205.8129 632.9027,-215.8129 636.4028,-205.813 629.4028,-205.8129"/>
</g>
<!-- TableDarkComponent  -->
<g id="node12" class="node">
<title>TableDarkComponent </title>
<polygon fill="#fb8072" stroke="#000000" points="565.1869,-252 420.8131,-252 420.8131,-216 565.1869,-216 565.1869,-252"/>
<text text-anchor="middle" x="493" y="-229.8" font-family="Times,serif" font-size="14.00" fill="#000000">TableDarkComponent </text>
</g>
<!-- SharedModule&#45;&gt;TableDarkComponent  -->
<g id="edge11" class="edge">
<title>SharedModule&#45;&gt;TableDarkComponent </title>
<path fill="none" stroke="#000000" stroke-dasharray="5,2" d="M472,-187.1061C472,-187.1061 472,-205.991 472,-205.991"/>
<polygon fill="#000000" stroke="#000000" points="468.5001,-205.9909 472,-215.991 475.5001,-205.991 468.5001,-205.9909"/>
</g>
<!-- TableLightComponent  -->
<g id="node13" class="node">
<title>TableLightComponent </title>
<polygon fill="#fb8072" stroke="#000000" points="402.5386,-252 255.4614,-252 255.4614,-216 402.5386,-216 402.5386,-252"/>
<text text-anchor="middle" x="329" y="-229.8" font-family="Times,serif" font-size="14.00" fill="#000000">TableLightComponent </text>
</g>
<!-- SharedModule&#45;&gt;TableLightComponent  -->
<g id="edge12" class="edge">
<title>SharedModule&#45;&gt;TableLightComponent </title>
<path fill="none" stroke="#000000" stroke-dasharray="5,2" d="M422.7776,-182C405.9915,-182 391.375,-182 391.375,-182 391.375,-182 391.375,-205.8129 391.375,-205.8129"/>
<polygon fill="#000000" stroke="#000000" points="387.8751,-205.8129 391.375,-215.8129 394.8751,-205.813 387.8751,-205.8129"/>
</g>
<!-- TemplatesModule  -->
<g id="node14" class="node">
<title>TemplatesModule </title>
<polygon fill="#fb8072" stroke="#000000" points="237.8631,-252 116.1369,-252 116.1369,-216 237.8631,-216 237.8631,-252"/>
<text text-anchor="middle" x="177" y="-229.8" font-family="Times,serif" font-size="14.00" fill="#000000">TemplatesModule </text>
</g>
<!-- SharedModule&#45;&gt;TemplatesModule  -->
<g id="edge13" class="edge">
<title>SharedModule&#45;&gt;TemplatesModule </title>
<path fill="none" stroke="#000000" stroke-dasharray="5,2" d="M422.6296,-177C346.1818,-177 207.8732,-177 207.8732,-177 207.8732,-177 207.8732,-205.9648 207.8732,-205.9648"/>
<polygon fill="#000000" stroke="#000000" points="204.3733,-205.9648 207.8732,-215.9648 211.3733,-205.9649 204.3733,-205.9648"/>
</g>
<!-- TotalPipe  -->
<g id="node15" class="node">
<title>TotalPipe </title>
<polygon fill="#fb8072" stroke="#000000" points="97.9362,-252 24.0638,-252 24.0638,-216 97.9362,-216 97.9362,-252"/>
<text text-anchor="middle" x="61" y="-229.8" font-family="Times,serif" font-size="14.00" fill="#000000">TotalPipe </text>
</g>
<!-- SharedModule&#45;&gt;TotalPipe  -->
<g id="edge14" class="edge">
<title>SharedModule&#45;&gt;TotalPipe </title>
<path fill="none" stroke="#000000" stroke-dasharray="5,2" d="M422.7092,-172C315.3685,-172 70.0184,-172 70.0184,-172 70.0184,-172 70.0184,-205.7333 70.0184,-205.7333"/>
<polygon fill="#000000" stroke="#000000" points="66.5183,-205.7333 70.0184,-215.7333 73.5183,-205.7333 66.5183,-205.7333"/>
</g>
<!-- IconsModule -->
<g id="node7" class="node">
<title>IconsModule</title>
<polygon fill="#8dd3c7" stroke="#000000" points="267.8697,-122 264.8697,-126 243.8697,-126 240.8697,-122 178.1303,-122 178.1303,-86 267.8697,-86 267.8697,-122"/>
<text text-anchor="middle" x="223" y="-99.8" font-family="Times,serif" font-size="14.00" fill="#000000">IconsModule</text>
</g>
<!-- IconsModule&#45;&gt;SharedModule -->
<g id="edge6" class="edge">
<title>IconsModule&#45;&gt;SharedModule</title>
<path fill="none" stroke="#000000" d="M261.7078,-122.0336C261.7078,-139.0597 261.7078,-162 261.7078,-162 261.7078,-162 412.6958,-162 412.6958,-162"/>
<polygon fill="#000000" stroke="#000000" points="412.6958,-165.5001 422.6958,-162 412.6958,-158.5001 412.6958,-165.5001"/>
</g>
<!-- TemplatesModule -->
<g id="node8" class="node">
<title>TemplatesModule</title>
<polygon fill="#8dd3c7" stroke="#000000" points="159.8627,-122 156.8627,-126 135.8627,-126 132.8627,-122 42.1373,-122 42.1373,-86 159.8627,-86 159.8627,-122"/>
<text text-anchor="middle" x="101" y="-99.8" font-family="Times,serif" font-size="14.00" fill="#000000">TemplatesModule</text>
</g>
<!-- TemplatesModule&#45;&gt;SharedModule -->
<g id="edge7" class="edge">
<title>TemplatesModule&#45;&gt;SharedModule</title>
<path fill="none" stroke="#000000" d="M138.125,-122.2222C138.125,-140.8285 138.125,-167 138.125,-167 138.125,-167 412.7356,-167 412.7356,-167"/>
<polygon fill="#000000" stroke="#000000" points="412.7356,-170.5001 422.7356,-167 412.7356,-163.5001 412.7356,-170.5001"/>
</g>
</g>
</svg>
