<?xml version="1.0" encoding="UTF-8" standalone="no"?>
<!DOCTYPE svg PUBLIC "-//W3C//DTD SVG 1.1//EN"
 "http://www.w3.org/Graphics/SVG/1.1/DTD/svg11.dtd">
<!-- Generated by graphviz version 2.40.1 (20161225.0304)
 -->
<!-- Title: dependencies Pages: 1 -->
<svg width="1497pt" height="211pt"
 viewBox="0.00 0.00 1497.00 211.00" xmlns="http://www.w3.org/2000/svg" xmlns:xlink="http://www.w3.org/1999/xlink">
<g id="graph0" class="graph" transform="scale(1 1) rotate(0) translate(4 207)">
<title>dependencies</title>
<polygon fill="#ffffff" stroke="transparent" points="-4,4 -4,-207 1493,-207 1493,4 -4,4"/>
<text text-anchor="start" x="723.5091" y="-42.4" font-family="sans-serif" font-weight="bold" font-size="14.00" fill="#000000">Legend</text>
<polygon fill="#ffffb3" stroke="transparent" points="510.5,-10 510.5,-30 530.5,-30 530.5,-10 510.5,-10"/>
<text text-anchor="start" x="534.129" y="-15.4" font-family="sans-serif" font-size="14.00" fill="#000000"> &#160;Declarations</text>
<polygon fill="#8dd3c7" stroke="transparent" points="623.5,-10 623.5,-30 643.5,-30 643.5,-10 623.5,-10"/>
<text text-anchor="start" x="647.2251" y="-15.4" font-family="sans-serif" font-size="14.00" fill="#000000"> &#160;Module</text>
<polygon fill="#80b1d3" stroke="transparent" points="709.5,-10 709.5,-30 729.5,-30 729.5,-10 709.5,-10"/>
<text text-anchor="start" x="733.2812" y="-15.4" font-family="sans-serif" font-size="14.00" fill="#000000"> &#160;Bootstrap</text>
<polygon fill="#fdb462" stroke="transparent" points="806.5,-10 806.5,-30 826.5,-30 826.5,-10 806.5,-10"/>
<text text-anchor="start" x="830.1732" y="-15.4" font-family="sans-serif" font-size="14.00" fill="#000000"> &#160;Providers</text>
<polygon fill="#fb8072" stroke="transparent" points="902.5,-10 902.5,-30 922.5,-30 922.5,-10 902.5,-10"/>
<text text-anchor="start" x="926.2258" y="-15.4" font-family="sans-serif" font-size="14.00" fill="#000000"> &#160;Exports</text>
<g id="clust1" class="cluster">
<title>cluster_OrdersModule</title>
<polygon fill="none" stroke="#000000" stroke-dasharray="1,5" points="8,-70 8,-195 1481,-195 1481,-70 8,-70"/>
</g>
<g id="clust2" class="cluster">
<title>cluster_OrdersModule_declarations</title>
<polygon fill="none" stroke="#000000" points="407,-78 407,-130 1473,-130 1473,-78 407,-78"/>
</g>
<g id="clust9" class="cluster">
<title>cluster_OrdersModule_imports</title>
<polygon fill="none" stroke="#000000" points="16,-78 16,-130 399,-130 399,-78 16,-78"/>
</g>
<!-- FormOrderComponent -->
<g id="node1" class="node">
<title>FormOrderComponent</title>
<polygon fill="#ffffb3" stroke="#000000" points="1465.3089,-122 1320.6911,-122 1320.6911,-86 1465.3089,-86 1465.3089,-122"/>
<text text-anchor="middle" x="1393" y="-99.8" font-family="Times,serif" font-size="14.00" fill="#000000">FormOrderComponent</text>
</g>
<!-- OrdersModule -->
<g id="node7" class="node">
<title>OrdersModule</title>
<polygon fill="#8dd3c7" stroke="#000000" points="731.6375,-187 728.6375,-191 707.6375,-191 704.6375,-187 634.3625,-187 634.3625,-151 731.6375,-151 731.6375,-187"/>
<text text-anchor="middle" x="683" y="-164.8" font-family="Times,serif" font-size="14.00" fill="#000000">OrdersModule</text>
</g>
<!-- FormOrderComponent&#45;&gt;OrdersModule -->
<g id="edge1" class="edge">
<title>FormOrderComponent&#45;&gt;OrdersModule</title>
<path fill="none" stroke="#000000" d="M1393,-122.0109C1393,-144.4852 1393,-180 1393,-180 1393,-180 741.8012,-180 741.8012,-180"/>
<polygon fill="#000000" stroke="#000000" points="741.8012,-176.5001 731.8012,-180 741.8011,-183.5001 741.8012,-176.5001"/>
</g>
<!-- OrderCommentComponent -->
<g id="node2" class="node">
<title>OrderCommentComponent</title>
<polygon fill="#ffffb3" stroke="#000000" points="1302.6979,-122 1133.3021,-122 1133.3021,-86 1302.6979,-86 1302.6979,-122"/>
<text text-anchor="middle" x="1218" y="-99.8" font-family="Times,serif" font-size="14.00" fill="#000000">OrderCommentComponent</text>
</g>
<!-- OrderCommentComponent&#45;&gt;OrdersModule -->
<g id="edge2" class="edge">
<title>OrderCommentComponent&#45;&gt;OrdersModule</title>
<path fill="none" stroke="#000000" d="M1218,-122.1289C1218,-142.5724 1218,-173 1218,-173 1218,-173 741.896,-173 741.896,-173"/>
<polygon fill="#000000" stroke="#000000" points="741.896,-169.5001 731.896,-173 741.8959,-176.5001 741.896,-169.5001"/>
</g>
<!-- OrderDetailComponent -->
<g id="node3" class="node">
<title>OrderDetailComponent</title>
<polygon fill="#ffffb3" stroke="#000000" points="1115.1825,-122 966.8175,-122 966.8175,-86 1115.1825,-86 1115.1825,-122"/>
<text text-anchor="middle" x="1041" y="-99.8" font-family="Times,serif" font-size="14.00" fill="#000000">OrderDetailComponent</text>
</g>
<!-- OrderDetailComponent&#45;&gt;OrdersModule -->
<g id="edge3" class="edge">
<title>OrderDetailComponent&#45;&gt;OrdersModule</title>
<path fill="none" stroke="#000000" d="M1041,-122.2667C1041,-140.5552 1041,-166 1041,-166 1041,-166 741.654,-166 741.654,-166"/>
<polygon fill="#000000" stroke="#000000" points="741.6541,-162.5001 731.654,-166 741.654,-169.5001 741.6541,-162.5001"/>
</g>
<!-- PageAddOrderComponent -->
<g id="node4" class="node">
<title>PageAddOrderComponent</title>
<polygon fill="#ffffb3" stroke="#000000" points="948.7935,-122 783.2065,-122 783.2065,-86 948.7935,-86 948.7935,-122"/>
<text text-anchor="middle" x="866" y="-99.8" font-family="Times,serif" font-size="14.00" fill="#000000">PageAddOrderComponent</text>
</g>
<!-- PageAddOrderComponent&#45;&gt;OrdersModule -->
<g id="edge4" class="edge">
<title>PageAddOrderComponent&#45;&gt;OrdersModule</title>
<path fill="none" stroke="#000000" d="M866,-122.0091C866,-138.0494 866,-159 866,-159 866,-159 742.0406,-159 742.0406,-159"/>
<polygon fill="#000000" stroke="#000000" points="742.0407,-155.5001 732.0406,-159 742.0406,-162.5001 742.0407,-155.5001"/>
</g>
<!-- PageEditOrderComponent -->
<g id="node5" class="node">
<title>PageEditOrderComponent</title>
<polygon fill="#ffffb3" stroke="#000000" points="765.0211,-122 600.9789,-122 600.9789,-86 765.0211,-86 765.0211,-122"/>
<text text-anchor="middle" x="683" y="-99.8" font-family="Times,serif" font-size="14.00" fill="#000000">PageEditOrderComponent</text>
</g>
<!-- PageEditOrderComponent&#45;&gt;OrdersModule -->
<g id="edge5" class="edge">
<title>PageEditOrderComponent&#45;&gt;OrdersModule</title>
<path fill="none" stroke="#000000" d="M683,-122.1061C683,-122.1061 683,-140.991 683,-140.991"/>
<polygon fill="#000000" stroke="#000000" points="679.5001,-140.9909 683,-150.991 686.5001,-140.991 679.5001,-140.9909"/>
</g>
<!-- PageListOrdersComponent -->
<g id="node6" class="node">
<title>PageListOrdersComponent</title>
<polygon fill="#ffffb3" stroke="#000000" points="583.4101,-122 414.5899,-122 414.5899,-86 583.4101,-86 583.4101,-122"/>
<text text-anchor="middle" x="499" y="-99.8" font-family="Times,serif" font-size="14.00" fill="#000000">PageListOrdersComponent</text>
</g>
<!-- PageListOrdersComponent&#45;&gt;OrdersModule -->
<g id="edge6" class="edge">
<title>PageListOrdersComponent&#45;&gt;OrdersModule</title>
<path fill="none" stroke="#000000" d="M499,-122.0091C499,-138.0494 499,-159 499,-159 499,-159 624.1745,-159 624.1745,-159"/>
<polygon fill="#000000" stroke="#000000" points="624.1745,-162.5001 634.1745,-159 624.1744,-155.5001 624.1745,-162.5001"/>
</g>
<!-- IconsModule -->
<g id="node8" class="node">
<title>IconsModule</title>
<polygon fill="#8dd3c7" stroke="#000000" points="390.8697,-122 387.8697,-126 366.8697,-126 363.8697,-122 301.1303,-122 301.1303,-86 390.8697,-86 390.8697,-122"/>
<text text-anchor="middle" x="346" y="-99.8" font-family="Times,serif" font-size="14.00" fill="#000000">IconsModule</text>
</g>
<!-- IconsModule&#45;&gt;OrdersModule -->
<g id="edge7" class="edge">
<title>IconsModule&#45;&gt;OrdersModule</title>
<path fill="none" stroke="#000000" d="M346,-122.2667C346,-140.5552 346,-166 346,-166 346,-166 624.3572,-166 624.3572,-166"/>
<polygon fill="#000000" stroke="#000000" points="624.3572,-169.5001 634.3572,-166 624.3572,-162.5001 624.3572,-169.5001"/>
</g>
<!-- OrdersRoutingModule -->
<g id="node9" class="node">
<title>OrdersRoutingModule</title>
<polygon fill="#8dd3c7" stroke="#000000" points="283.2548,-122 280.2548,-126 259.2548,-126 256.2548,-122 140.7452,-122 140.7452,-86 283.2548,-86 283.2548,-122"/>
<text text-anchor="middle" x="212" y="-99.8" font-family="Times,serif" font-size="14.00" fill="#000000">OrdersRoutingModule</text>
</g>
<!-- OrdersRoutingModule&#45;&gt;OrdersModule -->
<g id="edge8" class="edge">
<title>OrdersRoutingModule&#45;&gt;OrdersModule</title>
<path fill="none" stroke="#000000" d="M212,-122.1289C212,-142.5724 212,-173 212,-173 212,-173 623.9277,-173 623.9277,-173"/>
<polygon fill="#000000" stroke="#000000" points="623.9277,-176.5001 633.9277,-173 623.9276,-169.5001 623.9277,-176.5001"/>
</g>
<!-- SharedModule -->
<g id="node10" class="node">
<title>SharedModule</title>
<polygon fill="#8dd3c7" stroke="#000000" points="122.4231,-122 119.4231,-126 98.4231,-126 95.4231,-122 23.5769,-122 23.5769,-86 122.4231,-86 122.4231,-122"/>
<text text-anchor="middle" x="73" y="-99.8" font-family="Times,serif" font-size="14.00" fill="#000000">SharedModule</text>
</g>
<!-- SharedModule&#45;&gt;OrdersModule -->
<g id="edge9" class="edge">
<title>SharedModule&#45;&gt;OrdersModule</title>
<path fill="none" stroke="#000000" d="M73,-122.0109C73,-144.4852 73,-180 73,-180 73,-180 624.1123,-180 624.1123,-180"/>
<polygon fill="#000000" stroke="#000000" points="624.1123,-183.5001 634.1123,-180 624.1123,-176.5001 624.1123,-183.5001"/>
</g>
</g>
</svg>
