<?xml version="1.0" encoding="UTF-8" standalone="no"?>
<!DOCTYPE svg PUBLIC "-//W3C//DTD SVG 1.1//EN"
 "http://www.w3.org/Graphics/SVG/1.1/DTD/svg11.dtd">
<!-- Generated by graphviz version 2.40.1 (20161225.0304)
 -->
<!-- Title: dependencies Pages: 1 -->
<svg width="622pt" height="284pt"
 viewBox="0.00 0.00 622.00 284.00" xmlns="http://www.w3.org/2000/svg" xmlns:xlink="http://www.w3.org/1999/xlink">
<g id="graph0" class="graph" transform="scale(1 1) rotate(0) translate(4 280)">
<title>dependencies</title>
<polygon fill="#ffffff" stroke="transparent" points="-4,4 -4,-280 618,-280 618,4 -4,4"/>
<text text-anchor="start" x="286.0091" y="-42.4" font-family="sans-serif" font-weight="bold" font-size="14.00" fill="#000000">Legend</text>
<polygon fill="#ffffb3" stroke="transparent" points="73,-10 73,-30 93,-30 93,-10 73,-10"/>
<text text-anchor="start" x="96.629" y="-15.4" font-family="sans-serif" font-size="14.00" fill="#000000"> &#160;Declarations</text>
<polygon fill="#8dd3c7" stroke="transparent" points="186,-10 186,-30 206,-30 206,-10 186,-10"/>
<text text-anchor="start" x="209.7251" y="-15.4" font-family="sans-serif" font-size="14.00" fill="#000000"> &#160;Module</text>
<polygon fill="#80b1d3" stroke="transparent" points="272,-10 272,-30 292,-30 292,-10 272,-10"/>
<text text-anchor="start" x="295.7812" y="-15.4" font-family="sans-serif" font-size="14.00" fill="#000000"> &#160;Bootstrap</text>
<polygon fill="#fdb462" stroke="transparent" points="369,-10 369,-30 389,-30 389,-10 369,-10"/>
<text text-anchor="start" x="392.6732" y="-15.4" font-family="sans-serif" font-size="14.00" fill="#000000"> &#160;Providers</text>
<polygon fill="#fb8072" stroke="transparent" points="465,-10 465,-30 485,-30 485,-10 465,-10"/>
<text text-anchor="start" x="488.7258" y="-15.4" font-family="sans-serif" font-size="14.00" fill="#000000"> &#160;Exports</text>
<g id="clust1" class="cluster">
<title>cluster_AppModule</title>
<polygon fill="none" stroke="#000000" stroke-dasharray="1,5" points="8,-70 8,-268 606,-268 606,-70 8,-70"/>
</g>
<g id="clust2" class="cluster">
<title>cluster_AppModule_declarations</title>
<polygon fill="none" stroke="#000000" points="476,-78 476,-130 598,-130 598,-78 476,-78"/>
</g>
<g id="clust4" class="cluster">
<title>cluster_AppModule_imports</title>
<polygon fill="none" stroke="#000000" points="16,-78 16,-130 468,-130 468,-78 16,-78"/>
</g>
<g id="clust6" class="cluster">
<title>cluster_AppModule_bootstrap</title>
<polygon fill="none" stroke="#000000" points="208,-208 208,-260 332,-260 332,-208 208,-208"/>
</g>
<!-- AppComponent -->
<g id="node1" class="node">
<title>AppComponent</title>
<polygon fill="#ffffb3" stroke="#000000" points="589.9399,-122 484.0601,-122 484.0601,-86 589.9399,-86 589.9399,-122"/>
<text text-anchor="middle" x="537" y="-99.8" font-family="Times,serif" font-size="14.00" fill="#000000">AppComponent</text>
</g>
<!-- AppModule -->
<g id="node2" class="node">
<title>AppModule</title>
<polygon fill="#8dd3c7" stroke="#000000" points="311.6571,-187 308.6571,-191 287.6571,-191 284.6571,-187 228.3429,-187 228.3429,-151 311.6571,-151 311.6571,-187"/>
<text text-anchor="middle" x="270" y="-164.8" font-family="Times,serif" font-size="14.00" fill="#000000">AppModule</text>
</g>
<!-- AppComponent&#45;&gt;AppModule -->
<g id="edge1" class="edge">
<title>AppComponent&#45;&gt;AppModule</title>
<path fill="none" stroke="#000000" d="M537,-122.2843C537,-143.3211 537,-175 537,-175 537,-175 321.7188,-175 321.7188,-175"/>
<polygon fill="#000000" stroke="#000000" points="321.7188,-171.5001 311.7188,-175 321.7187,-178.5001 321.7188,-171.5001"/>
</g>
<!-- AppComponent  -->
<g id="node7" class="node">
<title>AppComponent </title>
<polygon fill="#80b1d3" stroke="#000000" points="324.439,-252 215.561,-252 215.561,-216 324.439,-216 324.439,-252"/>
<text text-anchor="middle" x="270" y="-229.8" font-family="Times,serif" font-size="14.00" fill="#000000">AppComponent </text>
</g>
<!-- AppModule&#45;&gt;AppComponent  -->
<g id="edge6" class="edge">
<title>AppModule&#45;&gt;AppComponent </title>
<path fill="none" stroke="#000000" stroke-dasharray="1,5" d="M270,-187.1061C270,-187.1061 270,-205.991 270,-205.991"/>
<polygon fill="#000000" stroke="#000000" points="266.5001,-205.9909 270,-215.991 273.5001,-205.991 266.5001,-205.9909"/>
</g>
<!-- AppRoutingModule -->
<g id="node3" class="node">
<title>AppRoutingModule</title>
<polygon fill="#8dd3c7" stroke="#000000" points="460.2744,-122 457.2744,-126 436.2744,-126 433.2744,-122 331.7256,-122 331.7256,-86 460.2744,-86 460.2744,-122"/>
<text text-anchor="middle" x="396" y="-99.8" font-family="Times,serif" font-size="14.00" fill="#000000">AppRoutingModule</text>
</g>
<!-- AppRoutingModule&#45;&gt;AppModule -->
<g id="edge2" class="edge">
<title>AppRoutingModule&#45;&gt;AppModule</title>
<path fill="none" stroke="#000000" d="M396,-122.0225C396,-139.3734 396,-163 396,-163 396,-163 321.9562,-163 321.9562,-163"/>
<polygon fill="#000000" stroke="#000000" points="321.9562,-159.5001 311.9562,-163 321.9561,-166.5001 321.9562,-159.5001"/>
</g>
<!-- CoreModule -->
<g id="node4" class="node">
<title>CoreModule</title>
<polygon fill="#8dd3c7" stroke="#000000" points="313.2619,-122 310.2619,-126 289.2619,-126 286.2619,-122 226.7381,-122 226.7381,-86 313.2619,-86 313.2619,-122"/>
<text text-anchor="middle" x="270" y="-99.8" font-family="Times,serif" font-size="14.00" fill="#000000">CoreModule</text>
</g>
<!-- CoreModule&#45;&gt;AppModule -->
<g id="edge3" class="edge">
<title>CoreModule&#45;&gt;AppModule</title>
<path fill="none" stroke="#000000" d="M270,-122.1061C270,-122.1061 270,-140.991 270,-140.991"/>
<polygon fill="#000000" stroke="#000000" points="266.5001,-140.9909 270,-150.991 273.5001,-140.991 266.5001,-140.9909"/>
</g>
<!-- LoginModule -->
<g id="node5" class="node">
<title>LoginModule</title>
<polygon fill="#8dd3c7" stroke="#000000" points="208.493,-122 205.493,-126 184.493,-126 181.493,-122 115.507,-122 115.507,-86 208.493,-86 208.493,-122"/>
<text text-anchor="middle" x="162" y="-99.8" font-family="Times,serif" font-size="14.00" fill="#000000">LoginModule</text>
</g>
<!-- LoginModule&#45;&gt;AppModule -->
<g id="edge4" class="edge">
<title>LoginModule&#45;&gt;AppModule</title>
<path fill="none" stroke="#000000" d="M162,-122.0225C162,-139.3734 162,-163 162,-163 162,-163 218.2444,-163 218.2444,-163"/>
<polygon fill="#000000" stroke="#000000" points="218.2444,-166.5001 228.2444,-163 218.2443,-159.5001 218.2444,-166.5001"/>
</g>
<!-- UiModule -->
<g id="node6" class="node">
<title>UiModule</title>
<polygon fill="#8dd3c7" stroke="#000000" points="97.5484,-122 94.5484,-126 73.5484,-126 70.5484,-122 24.4516,-122 24.4516,-86 97.5484,-86 97.5484,-122"/>
<text text-anchor="middle" x="61" y="-99.8" font-family="Times,serif" font-size="14.00" fill="#000000">UiModule</text>
</g>
<!-- UiModule&#45;&gt;AppModule -->
<g id="edge5" class="edge">
<title>UiModule&#45;&gt;AppModule</title>
<path fill="none" stroke="#000000" d="M61,-122.2843C61,-143.3211 61,-175 61,-175 61,-175 218.208,-175 218.208,-175"/>
<polygon fill="#000000" stroke="#000000" points="218.2081,-178.5001 228.208,-175 218.208,-171.5001 218.2081,-178.5001"/>
</g>
</g>
</svg>
