<?xml version="1.0" encoding="UTF-8" standalone="no"?>
<!DOCTYPE svg PUBLIC "-//W3C//DTD SVG 1.1//EN"
 "http://www.w3.org/Graphics/SVG/1.1/DTD/svg11.dtd">
<!-- Generated by graphviz version 2.40.1 (20161225.0304)
 -->
<!-- Title: dependencies Pages: 1 -->
<svg width="504pt" height="284pt"
 viewBox="0.00 0.00 504.00 284.00" xmlns="http://www.w3.org/2000/svg" xmlns:xlink="http://www.w3.org/1999/xlink">
<g id="graph0" class="graph" transform="scale(1 1) rotate(0) translate(4 280)">
<title>dependencies</title>
<polygon fill="#ffffff" stroke="transparent" points="-4,4 -4,-280 500,-280 500,4 -4,4"/>
<text text-anchor="start" x="227.0091" y="-42.4" font-family="sans-serif" font-weight="bold" font-size="14.00" fill="#000000">Legend</text>
<polygon fill="#ffffb3" stroke="transparent" points="14,-10 14,-30 34,-30 34,-10 14,-10"/>
<text text-anchor="start" x="37.629" y="-15.4" font-family="sans-serif" font-size="14.00" fill="#000000"> &#160;Declarations</text>
<polygon fill="#8dd3c7" stroke="transparent" points="127,-10 127,-30 147,-30 147,-10 127,-10"/>
<text text-anchor="start" x="150.7251" y="-15.4" font-family="sans-serif" font-size="14.00" fill="#000000"> &#160;Module</text>
<polygon fill="#80b1d3" stroke="transparent" points="213,-10 213,-30 233,-30 233,-10 213,-10"/>
<text text-anchor="start" x="236.7812" y="-15.4" font-family="sans-serif" font-size="14.00" fill="#000000"> &#160;Bootstrap</text>
<polygon fill="#fdb462" stroke="transparent" points="310,-10 310,-30 330,-30 330,-10 310,-10"/>
<text text-anchor="start" x="333.6732" y="-15.4" font-family="sans-serif" font-size="14.00" fill="#000000"> &#160;Providers</text>
<polygon fill="#fb8072" stroke="transparent" points="406,-10 406,-30 426,-30 426,-10 406,-10"/>
<text text-anchor="start" x="429.7258" y="-15.4" font-family="sans-serif" font-size="14.00" fill="#000000"> &#160;Exports</text>
<g id="clust1" class="cluster">
<title>cluster_IconsModule</title>
<polygon fill="none" stroke="#000000" stroke-dasharray="1,5" points="32,-70 32,-268 464,-268 464,-70 32,-70"/>
</g>
<g id="clust2" class="cluster">
<title>cluster_IconsModule_declarations</title>
<polygon fill="none" stroke="#000000" points="46,-78 46,-130 450,-130 450,-78 46,-78"/>
</g>
<g id="clust7" class="cluster">
<title>cluster_IconsModule_exports</title>
<polygon fill="none" stroke="#000000" points="40,-208 40,-260 456,-260 456,-208 40,-208"/>
</g>
<!-- DeleteComponent -->
<g id="node1" class="node">
<title>DeleteComponent</title>
<polygon fill="#ffffb3" stroke="#000000" points="441.8641,-122 324.1359,-122 324.1359,-86 441.8641,-86 441.8641,-122"/>
<text text-anchor="middle" x="383" y="-99.8" font-family="Times,serif" font-size="14.00" fill="#000000">DeleteComponent</text>
</g>
<!-- IconsModule -->
<g id="node4" class="node">
<title>IconsModule</title>
<polygon fill="#8dd3c7" stroke="#000000" points="298.8697,-187 295.8697,-191 274.8697,-191 271.8697,-187 209.1303,-187 209.1303,-151 298.8697,-151 298.8697,-187"/>
<text text-anchor="middle" x="254" y="-164.8" font-family="Times,serif" font-size="14.00" fill="#000000">IconsModule</text>
</g>
<!-- DeleteComponent&#45;&gt;IconsModule -->
<g id="edge1" class="edge">
<title>DeleteComponent&#45;&gt;IconsModule</title>
<path fill="none" stroke="#000000" d="M403.394,-122.0225C403.394,-139.3734 403.394,-163 403.394,-163 403.394,-163 309.2285,-163 309.2285,-163"/>
<polygon fill="#000000" stroke="#000000" points="309.2286,-159.5001 299.2285,-163 309.2285,-166.5001 309.2286,-159.5001"/>
</g>
<!-- EditComponent -->
<g id="node2" class="node">
<title>EditComponent</title>
<polygon fill="#ffffb3" stroke="#000000" points="306.1667,-122 201.8333,-122 201.8333,-86 306.1667,-86 306.1667,-122"/>
<text text-anchor="middle" x="254" y="-99.8" font-family="Times,serif" font-size="14.00" fill="#000000">EditComponent</text>
</g>
<!-- EditComponent&#45;&gt;IconsModule -->
<g id="edge2" class="edge">
<title>EditComponent&#45;&gt;IconsModule</title>
<path fill="none" stroke="#000000" d="M254,-122.1061C254,-122.1061 254,-140.991 254,-140.991"/>
<polygon fill="#000000" stroke="#000000" points="250.5001,-140.9909 254,-150.991 257.5001,-140.991 250.5001,-140.9909"/>
</g>
<!-- IconNavComponent -->
<g id="node3" class="node">
<title>IconNavComponent</title>
<polygon fill="#ffffb3" stroke="#000000" points="183.5297,-122 54.4703,-122 54.4703,-86 183.5297,-86 183.5297,-122"/>
<text text-anchor="middle" x="119" y="-99.8" font-family="Times,serif" font-size="14.00" fill="#000000">IconNavComponent</text>
</g>
<!-- IconNavComponent&#45;&gt;IconsModule -->
<g id="edge3" class="edge">
<title>IconNavComponent&#45;&gt;IconsModule</title>
<path fill="none" stroke="#000000" d="M139.0881,-122.0225C139.0881,-139.3734 139.0881,-163 139.0881,-163 139.0881,-163 198.9136,-163 198.9136,-163"/>
<polygon fill="#000000" stroke="#000000" points="198.9136,-166.5001 208.9136,-163 198.9136,-159.5001 198.9136,-166.5001"/>
</g>
<!-- DeleteComponent  -->
<g id="node5" class="node">
<title>DeleteComponent </title>
<polygon fill="#fb8072" stroke="#000000" points="447.8645,-252 326.1355,-252 326.1355,-216 447.8645,-216 447.8645,-252"/>
<text text-anchor="middle" x="387" y="-229.8" font-family="Times,serif" font-size="14.00" fill="#000000">DeleteComponent </text>
</g>
<!-- IconsModule&#45;&gt;DeleteComponent  -->
<g id="edge4" class="edge">
<title>IconsModule&#45;&gt;DeleteComponent </title>
<path fill="none" stroke="#000000" stroke-dasharray="5,2" d="M299.0894,-175C329.7805,-175 364.856,-175 364.856,-175 364.856,-175 364.856,-205.9775 364.856,-205.9775"/>
<polygon fill="#000000" stroke="#000000" points="361.3561,-205.9774 364.856,-215.9775 368.3561,-205.9775 361.3561,-205.9774"/>
</g>
<!-- EditComponent  -->
<g id="node6" class="node">
<title>EditComponent </title>
<polygon fill="#fb8072" stroke="#000000" points="308.1663,-252 199.8337,-252 199.8337,-216 308.1663,-216 308.1663,-252"/>
<text text-anchor="middle" x="254" y="-229.8" font-family="Times,serif" font-size="14.00" fill="#000000">EditComponent </text>
</g>
<!-- IconsModule&#45;&gt;EditComponent  -->
<g id="edge5" class="edge">
<title>IconsModule&#45;&gt;EditComponent </title>
<path fill="none" stroke="#000000" stroke-dasharray="5,2" d="M254,-187.1061C254,-187.1061 254,-205.991 254,-205.991"/>
<polygon fill="#000000" stroke="#000000" points="250.5001,-205.9909 254,-215.991 257.5001,-205.991 250.5001,-205.9909"/>
</g>
<!-- IconNavComponent  -->
<g id="node7" class="node">
<title>IconNavComponent </title>
<polygon fill="#fb8072" stroke="#000000" points="181.5288,-252 48.4712,-252 48.4712,-216 181.5288,-216 181.5288,-252"/>
<text text-anchor="middle" x="115" y="-229.8" font-family="Times,serif" font-size="14.00" fill="#000000">IconNavComponent </text>
</g>
<!-- IconsModule&#45;&gt;IconNavComponent  -->
<g id="edge6" class="edge">
<title>IconsModule&#45;&gt;IconNavComponent </title>
<path fill="none" stroke="#000000" stroke-dasharray="5,2" d="M208.9132,-175C162.4201,-175 96.6619,-175 96.6619,-175 96.6619,-175 96.6619,-205.9775 96.6619,-205.9775"/>
<polygon fill="#000000" stroke="#000000" points="93.1618,-205.9775 96.6619,-215.9775 100.1618,-205.9774 93.1618,-205.9775"/>
</g>
</g>
</svg>
